Coordinates
version=1
nRows=5
nColumns=40
inDegrees=yes

Units are S.I. units (second, meters, Newtons, ...)
Angles are in degrees.

endheader
time	pelvis_tilt	pelvis_list	pelvis_rotation	pelvis_tx	pelvis_ty	pelvis_tz	hip_flexion_r	hip_adduction_r	hip_rotation_r	knee_angle_r	knee_angle_r_beta	ankle_angle_r	subtalar_angle_r	mtp_angle_r	hip_flexion_l	hip_adduction_l	hip_rotation_l	knee_angle_l	knee_angle_l_beta	ankle_angle_l	subtalar_angle_l	mtp_angle_l	lumbar_extension	lumbar_bending	lumbar_rotation	arm_flex_r	arm_add_r	arm_rot_r	elbow_flex_r	pro_sup_r	wrist_flex_r	wrist_dev_r	arm_flex_l	arm_add_l	arm_rot_l	elbow_flex_l	pro_sup_l	wrist_flex_l	wrist_dev_l
      0.37000000	     -4.23495417	     -7.10087780	      4.28882200	     -0.42445576	      0.93278723	     -1.43881200	     25.54179617	      6.75983184	    -16.01839105	    -25.96762949	     -0.45322063	      0.72962906	    -13.22034771	      7.43754507	      4.04250995	     17.37883472	     10.65949451	    -54.97017795	     -0.95941060	     -7.08542550	     14.10976074	     -3.54429583	      0.73498441	      8.39124206	     -6.56289203	     -7.69500329	     -9.06352943	    -15.94525746	     11.70608878	     89.95437384	      0.00000000	      0.00000000	      2.37271947	     21.00011379	     18.70251279	     50.47344927	     89.95437384	      0.00000000	      0.00000000
      0.38000000	     -5.05033076	     -6.97554902	      4.60164076	     -0.41391476	      0.93394293	     -1.43903498	     25.55402302	      6.44973007	    -16.38792016	    -25.80972466	     -0.45046467	      1.04986572	    -12.87943727	      7.23365548	      7.53979608	     16.78525001	      9.39566130	    -57.48939270	     -1.00337919	     -5.48771922	     16.15907438	     -2.09779268	      1.50094045	      8.15140005	     -6.28879269	     -7.30223191	     -8.98724487	    -17.20440303	     11.84370640	     89.95437384	      0.00000000	      0.00000000	      2.09562079	     19.97699184	     18.03100676	     49.21068079	     89.95437384	      0.00000000	      0.00000000
      0.39000000	     -4.84670562	     -6.76821882	      4.77456538	     -0.40231236	      0.93698626	     -1.43905864	     24.09134942	      6.40370744	    -16.27896607	    -25.09615832	     -0.43801059	      1.65360926	    -12.62902085	      7.06626593	      9.31352642	     16.26686307	      8.87616664	    -59.04752567	     -1.03057374	     -3.85648591	     17.28017063	     -1.96619654	      1.17329473	      7.89376104	     -5.94865521	     -6.66419858	     -9.05734434	    -17.18616404	     11.90525370	     89.95437384	      0.00000000	      0.00000000	      1.67259967	     19.09040267	     17.44118901	     47.87198102	     89.95437384	      0.00000000	      0.00000000
      0.40000000	     -4.82707804	     -6.51751258	      5.08273086	     -0.39114585	      0.93969517	     -1.43939551	     22.83359113	      6.18236233	    -16.48545554	    -24.31132573	     -0.42431268	      2.03865903	    -12.25037699	      6.90519614	     11.38239189	     15.57036270	      8.14885841	    -60.41846222	     -1.05450109	     -2.37046869	     17.92813781	     -1.55587891	      1.01860804	      7.55627957	     -5.69118756	     -6.17248064	     -9.07804585	    -17.35225014	     12.27022631	     89.95437384	      0.00000000	      0.00000000	      1.33509234	     18.20478642	     16.73580137	     46.38074291	     89.95437384	      0.00000000	      0.00000000
      0.41000000	     -5.02998033	     -6.41216017	      5.60451491	     -0.38036716	      0.94191683	     -1.44009843	     21.88806292	      5.92240420	    -17.36819989	    -23.58223912	     -0.41158772	      2.21342005	    -11.69357637	      6.63691958	     13.87007555	     14.87445155	      7.11548155	    -61.69522811	     -1.07678486	     -0.64929225	     18.19319537	      0.68059696	      1.11826113	      7.36057968	     -5.60039079	     -5.60585965	     -9.02977954	    -18.80239406	     12.59036974	     89.95437384	      0.00000000	      0.00000000	      1.02290113	     17.38322650	     15.92911815	     44.72354021	     89.95437384	      0.00000000	      0.00000000
